<?xml version="1.0" encoding="UTF-8"?>
<svg id="Layer_1" xmlns="http://www.w3.org/2000/svg" version="1.1" viewBox="0 0 108.6 31">
  <!-- Generator: Adobe Illustrator 29.1.0, SVG Export Plug-In . SVG Version: 2.1.0 Build 142)  -->
  <defs>
    <style>
      .st0 {
        fill: #fff;
      }
    </style>
  </defs>
  <path class="st0" d="M12.1,3.6c9.4-.5,15.6,9.7,10.9,17.8-4.6,7.9-15.9,7.9-20.5,0S3.3,4.1,12.1,3.6ZM14.5,24.2c3.5-.6,6.3-3.4,7.1-6.9,1.6-7.7-6.7-13.7-13.4-9.5-6.3,3.9-5.3,13.5,1.6,16,.2,0,1.3.4,1.4.4s0,0,0-.1c0-.5,0-1.7-.2-2.3-.4-1.7-1.9-2.4-2.6-3.9-1.2-2.7.3-5.8,3.1-6.6s7.2,2.8,5.7,6.5-2,2.2-2.5,3.7-.3,1.8-.3,2.7ZM13.2,15.8v-2.8l-2.3,3.8h1.7s0,3.2,0,3.2l2.4-4.2h-1.7Z"/>
  <g>
    <path class="st0" d="M31,19h4.7v3.2h-8.5v-13.8s0,0,0,0h3.6s0,0,0,0v10.6Z"/>
    <path class="st0" d="M47,12.6c.4-.5.7-.9,1.3-1.2,1.1-.4,2.7-.2,3.1,1.1.7-.9,1.5-1.3,2.7-1.2s2,1,2,2.2v4.9h-2.4v-4.1c0-.1,0-.6-.2-.8-.3-.7-1.4-.6-1.8,0s-.2.9-.2,1.1v3.8h-2.4v-4.1c0-.1,0-.6-.2-.8-.3-.7-1.4-.6-1.8,0s-.3.8-.3,1v3.9h-2.4v-6.9h2.4v1.1Z"/>
    <path class="st0" d="M60.2,7.8v4.6s-.1.2,0,.1c.8-1.5,3.1-1.6,4.3-.6,1.8,1.6,1.6,5.6-.8,6.5s-2.4.1-3.2-.8-.1-.2-.2-.3v1.1h-2.2V7.8h2.3ZM61.3,13.2c-1.8.2-1.8,3.8.7,3.4,1.7-.2,1.7-3.7-.7-3.4Z"/>
    <polygon class="st0" points="101.8 11.2 103.3 15 104.7 11.2 107.7 11.2 102.8 22.2 99.8 22.2 99.8 22 101.9 17.7 98.8 11.2 101.8 11.2"/>
    <path class="st0" d="M40.5,12.5v-.9s0,0,0,0h2.2v6.9h-2.2v-1.1c-.7.9-1.5,1.4-2.7,1.3-3.7-.2-3.8-7,0-7.4s2,.3,2.7,1.2ZM38,13.6c-.8.8-.6,2.6.5,3s2.5-.9,2.1-2.3-1.8-1.5-2.6-.7Z"/>
    <path class="st0" d="M98.6,18.4h-2.5v-4.1c0,0-.1-.6-.2-.7-.4-.7-1.5-.6-2,0s-.4.9-.4,1.1v3.7h-2.4v-6.9h2.2v1.3c.5-.7,1-1.3,1.9-1.5,2-.4,3.2.5,3.3,2.5s0,3,0,4.5Z"/>
    <path class="st0" d="M74.3,15.4h-5.3c0,1.2.7,1.7,1.9,1.6s1-.3,1.2-.8l1.8.8c-.6,1.4-2.3,1.7-3.7,1.6s-3.1-1.1-3.4-2.7c-.7-3,1.7-5.2,4.7-4.6,1.9.4,2.8,2.2,2.8,4.1ZM71.9,14c-.2-1.7-2.6-1.7-2.8,0h2.8Z"/>
    <path class="st0" d="M84.7,9.4v2h1s0,0,0,0v1.6s0,0,0,0h-1v5.2h-2.4v-5.2h-1v-1.7h1v-2h2.4Z"/>
    <path class="st0" d="M78,13l.6-1c.6-.6,1.6-.8,2.4-.7l-.3,2.2c-.8-.2-1.8-.2-2.3.6s-.3.6-.3.8v3.4h-2.5v-6.9h2.3v1.5Z"/>
    <rect class="st0" x="86.9" y="11.5" width="2.5" height="6.9"/>
    <path class="st0" d="M87.9,6.6c2.6-.3,3.3,3.5.8,4.1s-3.7-3.8-.8-4.1Z"/>
    <path class="st0" d="M84.4,20.2c2.5-.3,2.9,3.1.8,3.3s-2.7-3-.8-3.3ZM84.6,21c-.9.2-.7,1.6.1,1.7,1.3.2,1.2-2-.1-1.7Z"/>
    <path class="st0" d="M61,20.2c1.1.1,1.6,1.6.3,1.9l.9,1.3h-.9c0,0-.6-.9-.7-1.1s0,0-.1,0v1.1h-.8v-3.2c.4,0,.9,0,1.3,0ZM60.5,21.7c1,.2.9-.9,0-.8v.8Z"/>
    <path class="st0" d="M80.1,21.3c-.7-.6-1.8-.4-1.6.7s1,.9,1.6.6v.8c-.3,0-.5.1-.8.1,0,.1,0,0,.1.1.3.1.5.2.4.6s-1.1.3-1.2.2,0-.3,0-.3c0,0,.6.3.7,0,0-.2-.4,0-.4-.2s0-.3,0-.4-.5-.1-.6-.2c-1.2-.6-1.2-2.9.3-3.1s1.3,0,1.3.2v.8Z"/>
    <path class="st0" d="M67,20.2l.7,2,.7-2h1l-1.2,3.1c0,0-.7.1-.8,0l-1.3-3.1h.9Z"/>
    <path class="st0" d="M55.1,20.2c0,.1,0,.8,0,.8h-.9v.5h.9v.7h-.9v.5h.9v.7h-1.8v-3.2h1.8Z"/>
    <path class="st0" d="M47.4,20.2c.3,0,.7,0,.9.1.6.2.3.4,0,.9-.2-.4-1.2-.3-.7.1s1,.4,1.1,1c.2,1.3-1.2,1.5-2,.9s-.2-.2-.2-.2.3-.6.3-.6c.2.1,1,.6,1.1.2s-.7-.6-1-.8c-.5-.5-.3-1.4.4-1.5Z"/>
    <path class="st0" d="M91.4,21.2s-.6-.5-.8-.2,0,.2,0,.3c.1.2.7.3.9.5.6.6.3,1.5-.6,1.7s-1.2,0-1.4-.5.3-.5.3-.6c.3,0,.4.3.7.4s.6,0,.4-.3-1-.4-1.2-1c-.4-1.1.8-1.5,1.6-1.1s.1.4,0,.8Z"/>
    <path class="st0" d="M74.4,20.2v3.2h-.8s0,0,0-.1v-3h.9Z"/>
  </g>
</svg>