<?xml version="1.0" encoding="UTF-8"?>
<svg id="Layer_1" data-name="Layer 1" xmlns="http://www.w3.org/2000/svg" xmlns:xlink="http://www.w3.org/1999/xlink" viewBox="0 0 192.01 192.01">
  <defs>
    <style>
      .cls-1 {
        fill: none;
      }

      .cls-2 {
        fill: #fff;
      }

      .cls-3 {
        clip-path: url(#clippath);
      }
    </style>
    <clipPath id="clippath">
      <rect class="cls-1" x="26.62" y="-.09" width="138.76" height="192.19"/>
    </clipPath>
  </defs>
  <g class="cls-3">
    <path d="M66.08,149.45c-1.98,3.11-4.11,5-3.86,6.47.27,1.57,2.68,3.51,4.41,3.8,1.01.17,3.53-2.54,3.54-3.97,0-1.65-2.01-3.3-4.08-6.31ZM113.76,66.24c-13.23-4.45-25.53-4.88-38.29,0h38.29ZM48.72,52.84c.48-.15.97-.29,1.45-.44-.52-2.47-1.04-4.94-1.57-7.4-1.82-8.46-.94-11.05,6.36-15.85,3.8-2.5,7.99-4.39,12.75-6.95-8.63,1.57-15.46,4.94-20.95,10.64-1.45,1.51-3.09,4.14-2.73,5.85,1.03,4.83,3.05,9.44,4.68,14.14ZM152.03,123.59c-7,28.78-24.83,46.33-53.36,54.01,25,1.08,54.07-28.43,53.36-54.01ZM145.35,82.28c.45.12.89.23,1.34.35,2.81-10.45,6.04-20.8,8.33-31.36,4.41-20.24-10.75-39.71-32.54-41.59,2.73,1.31,4.91,2.38,7.11,3.42,19.13,8.99,24.87,19.83,21.22,40.43-1.7,9.6-3.63,19.17-5.46,28.75ZM66.28,132.1c-.2-8.85-2.53-16.84-8.7-23.22-5.47-5.66-11.34-4.01-13.17,3.64-2.08,8.66.02,16.78,4.44,24.24,2.5,4.23,5.6,9.06,11.41,7.46,5.83-1.61,5.65-7.32,6.01-12.12ZM128.89,67.66c2.1-8.2,4.01-15.96,6.1-23.66,1.07-3.95-.31-6.72-3.32-9.18-16.22-13.27-59.26-13.22-74.93.29-1.59,1.37-3.59,3.92-3.3,5.54,1.63,8.99,3.91,17.87,6.01,26.98,31.85-12.8,39.75-12.8,69.44.05ZM93.24.2c18.1.49,34.47,3.04,49.11,12.22,14.89,9.34,20.09,20.84,16.22,38.01-2.43,10.76-5.92,21.29-9.31,31.8-1.1,3.42-1.13,6.05.59,9.35,15.5,29.77,5.63,65.55-22.7,82.99-28.04,17.27-64.76,10.11-83.94-17.04-14.5-20.54-15.86-42.69-4.8-65.27,1.89-3.87,1.87-6.88.63-10.83-3.57-11.36-6.96-22.82-9.67-34.41-2.77-11.83,1.3-21.81,10.38-29.73C51.65,6.93,66.08,2.92,81.31,1.08c4.35-.53,8.75-.65,11.93-.88Z"/>
    <path class="cls-2" d="M66.28,132.1c-.36,4.8-.18,10.52-6.01,12.12-5.81,1.6-8.91-3.23-11.41-7.46-4.42-7.47-6.52-15.58-4.44-24.24,1.84-7.65,7.7-9.3,13.17-3.64,6.17,6.38,8.5,14.37,8.7,23.22Z"/>
    <path class="cls-2" d="M145.35,82.28c1.83-9.58,3.76-19.15,5.46-28.75,3.65-20.6-2.09-31.44-21.22-40.43-2.2-1.03-4.38-2.1-7.11-3.42,21.78,1.88,36.94,21.34,32.54,41.59-2.3,10.56-5.53,20.91-8.33,31.36-.45-.12-.89-.23-1.34-.35Z"/>
    <path class="cls-2" d="M152.03,123.59c.71,25.58-28.36,55.09-53.36,54.01,28.53-7.69,46.35-25.23,53.36-54.01Z"/>
    <path class="cls-2" d="M48.72,52.84c-1.63-4.7-3.65-9.31-4.68-14.14-.36-1.71,1.27-4.34,2.73-5.85,5.49-5.7,12.32-9.07,20.95-10.64-4.75,2.56-8.95,4.45-12.75,6.95-7.31,4.8-8.19,7.39-6.36,15.85.53,2.47,1.05,4.93,1.57,7.4-.48.15-.97.29-1.45.44Z"/>
    <path class="cls-2" d="M113.76,66.24h-38.29c12.76-4.88,25.06-4.45,38.29,0Z"/>
    <path class="cls-2" d="M66.08,149.45c2.08,3.01,4.09,4.66,4.08,6.31,0,1.42-2.52,4.14-3.54,3.97-1.73-.29-4.13-2.23-4.41-3.8-.26-1.47,1.88-3.36,3.86-6.47Z"/>
  </g>
</svg>