<?xml version="1.0" encoding="UTF-8"?>
<svg id="Layer_1" data-name="Layer 1" xmlns="http://www.w3.org/2000/svg" viewBox="0 0 85 85">
  <defs>
    <style>
      .cls-1 {
        fill: #70c9bd;
      }
    </style>
  </defs>
  <g id="_id2_s6gkz8lf0s" data-name="  id2 s6gkz8lf0s">
    <path class="cls-1" d="M37.92,48.46c-.19,0-.47.04-.75.26l-1.61,1.24c-.51.39-1.12.6-1.75.6-1.45,0-2.68-1.08-2.87-2.51l-.26-2.01c-.08-.61-.6-1.07-1.22-1.07-.11,0-.21.01-.32.04l-1.3.35-12.2,27.08,10.07-6.82,5.44,16.75,8.16-32.71-.33-.57c-.22-.39-.62-.62-1.07-.62"/>
    <path class="cls-1" d="M44.18,45.25c-.55.05-1.11.07-1.68.07s-1.13-.03-1.68-.07c-4.14-.37-7.9-2.09-10.82-4.72-3.79-3.42-6.17-8.36-6.17-13.87,0-10.31,8.36-18.67,18.67-18.67s18.67,8.36,18.67,18.67c0,5.5-2.38,10.45-6.17,13.87-2.92,2.63-6.67,4.35-10.82,4.72ZM48.8,47.45l1.61,1.23c.24.18.51.27.78.27.61,0,1.19-.44,1.29-1.12l.26-2.01c.19-1.44,1.42-2.46,2.8-2.46.24,0,.49.03.74.1h.04s1.92.52,1.92.52c.11.03.23.05.34.05.81,0,1.47-.78,1.24-1.63l-.53-1.96c-.44-1.65.67-3.32,2.36-3.54l2.01-.26c.99-.13,1.46-1.28.86-2.07l-1.23-1.61c-1.04-1.36-.65-3.32.83-4.17l1.76-1.01c.86-.5.86-1.74,0-2.24l-1.76-1.01c-1.48-.85-1.87-2.82-.83-4.17l1.23-1.61c.6-.79.13-1.93-.86-2.07l-2.01-.26c-1.7-.22-2.81-1.89-2.36-3.54l.53-1.96c.23-.85-.43-1.63-1.24-1.63-.11,0-.22.01-.34.05l-1.96.52c-.25.07-.49.1-.74.1-1.38,0-2.61-1.02-2.8-2.46l-.26-2.01c-.09-.69-.67-1.12-1.28-1.12-.27,0-.54.08-.78.27l-1.61,1.23c-.52.4-1.12.59-1.72.59-.97,0-1.93-.5-2.45-1.42l-1.01-1.76c-.25-.43-.68-.64-1.12-.64s-.87.21-1.12.64l-1.01,1.76c-.53.92-1.48,1.42-2.45,1.42-.6,0-1.2-.19-1.72-.59l-1.61-1.23c-.24-.18-.51-.27-.78-.27-.61,0-1.19.44-1.28,1.12l-.26,2.01c-.19,1.44-1.42,2.46-2.8,2.46-.24,0-.49-.03-.74-.1l-1.96-.52c-.11-.03-.23-.05-.34-.05-.81,0-1.47.78-1.24,1.63l.53,1.96c.44,1.65-.67,3.32-2.36,3.54l-2.01.26c-.99.13-1.46,1.28-.86,2.07l1.23,1.61c1.04,1.36.65,3.32-.83,4.17l-1.76,1.01c-.86.5-.86,1.74,0,2.24l1.76,1.01c1.48.85,1.87,2.82.83,4.17l-1.23,1.61c-.6.79-.13,1.93.86,2.07l2.01.26c1.7.22,2.81,1.89,2.36,3.54l-.53,1.96c-.23.84.43,1.63,1.24,1.63.11,0,.23-.01.34-.05l1.92-.51h.04c.25-.08.49-.11.74-.11,1.38,0,2.61,1.02,2.8,2.46l.26,2.01c.09.68.67,1.12,1.29,1.12.27,0,.54-.08.78-.27l1.61-1.23c.52-.4,1.12-.59,1.72-.59.76,0,1.51.31,2.05.88.15.16.29.34.4.54l1.01,1.76c.25.43.68.65,1.12.65s.87-.22,1.12-.65l1.01-1.76c.12-.2.25-.38.4-.54.54-.57,1.29-.88,2.05-.88.6,0,1.2.19,1.72.59"/>
    <path class="cls-1" d="M42.5,42.06c-8.49,0-15.4-6.91-15.4-15.4s6.91-15.4,15.4-15.4,15.4,6.91,15.4,15.4-6.91,15.4-15.4,15.4ZM42.5,9.66c-9.38,0-17,7.63-17,17s7.63,17,17,17,17-7.63,17-17-7.63-17-17-17"/>
    <path class="cls-1" d="M48.27,28.54c-.12.12-.18.3-.15.46l1.09,6.36c.07.43-.37.76-.76.56l-5.71-3c-.15-.08-.33-.08-.49,0l-5.71,3c-.38.2-.83-.12-.76-.56l1.09-6.36c.03-.17-.03-.34-.15-.46l-4.62-4.5c-.31-.3-.14-.83.29-.89l6.38-.92c.17-.03.32-.14.39-.29l2.86-5.78c.19-.39.75-.39.94,0l2.86,5.78c.07.16.22.26.39.29l6.38.92c.43.06.6.59.29.89l-4.62,4.5"/>
    <path class="cls-1" d="M57.17,45.35l-1.3-.35c-.11-.03-.22-.04-.32-.04-.61,0-1.14.46-1.22,1.07l-.26,2.01c-.19,1.43-1.42,2.51-2.87,2.51-.64,0-1.24-.21-1.75-.6l-1.61-1.24c-.27-.21-.56-.26-.75-.26-.45,0-.85.23-1.07.62l-.33.57,8.16,32.71,5.45-16.75,10.07,6.82-12.2-27.08"/>
  </g>
</svg>