<?xml version="1.0" encoding="UTF-8"?>
<svg id="Layer_1" data-name="Layer 1" xmlns="http://www.w3.org/2000/svg" xmlns:xlink="http://www.w3.org/1999/xlink" viewBox="0 0 192.01 192.01">
  <defs>
    <style>
      .cls-1 {
        fill: none;
      }

      .cls-2 {
        clip-path: url(#clippath);
      }
    </style>
    <clipPath id="clippath">
      <rect class="cls-1" x="3.52" y="9.75" width="184.97" height="172.5"/>
    </clipPath>
  </defs>
  <g class="cls-2">
    <path d="M182.87,172.33c-7.56-14.15-15.11-28.3-22.65-42.46-.39-.73-.63-.85-1.38-.84-10.61.04-21.22.05-31.83.03h-21.15c-24.23,0-48.44-.01-72.65-.03-.72,0-1.02.13-1.44.93-6.94,13.05-13.89,26.08-20.86,39.11l-6.97,13.06h184.17l-5.24-9.8ZM152.94,116.27c-8.7-16.28-17.41-32.57-26.12-48.85-.11-.12-.24-.2-.39-.24-12.47-.02-24.95-.03-37.45-.03h-23.29c-.27,0-.34,0-.56.41-6.35,11.91-12.7,23.81-19.07,35.7l-6.64,12.41c-.69,1.29-1.38,2.59-2.08,3.92l-.33.62h118.03l-2.11-3.94ZM121.96,58.3h-51.87l25.93-48.54,25.93,48.54Z"/>
  </g>
</svg>